<?xml version="1.0" standalone="no"?>
<!DOCTYPE svg PUBLIC "-//W3C//DTD SVG 20010904//EN"
 "http://www.w3.org/TR/2001/REC-SVG-20010904/DTD/svg10.dtd">
<svg version="1.0" xmlns="http://www.w3.org/2000/svg"
 width="240.000000pt" height="240.000000pt" viewBox="0 0 240.000000 240.000000"
 preserveAspectRatio="xMidYMid meet">
<metadata>
Created by potrace 1.14, written by Peter Selinger 2001-2017
</metadata>
<g transform="translate(0.000000,240.000000) scale(0.100000,-0.100000)"
fill="#000000" stroke="none">
<path d="M1517 2025 c-78 -27 -117 -52 -177 -115 -82 -85 -119 -185 -114 -312
l3 -77 -42 5 c-43 5 -89 12 -142 21 -58 9 -234 72 -312 111 -111 57 -213 132
-310 228 l-84 84 -20 -46 c-74 -166 -24 -378 115 -493 l41 -33 -45 6 c-53 7
-111 25 -125 37 -39 37 -27 -78 19 -176 50 -106 131 -180 245 -222 44 -16 50
-21 32 -26 -13 -3 -56 -5 -96 -4 l-73 2 14 -35 c55 -130 190 -233 339 -256 22
-3 41 -7 43 -9 4 -3 -98 -65 -153 -93 -106 -53 -247 -84 -379 -83 l-98 0 48
-25 c27 -14 60 -32 74 -39 163 -86 357 -126 575 -120 77 2 151 6 165 9 14 3
41 9 60 12 161 28 407 142 516 240 12 10 36 33 55 49 55 49 152 165 197 235
120 190 187 396 198 610 5 101 9 117 27 134 66 56 97 86 140 136 26 30 47 58
47 61 0 4 -22 -1 -50 -12 -27 -10 -71 -24 -97 -29 -27 -6 -57 -13 -68 -17 -11
-3 9 23 45 58 59 58 121 151 108 164 -2 3 -27 -6 -55 -19 -56 -27 -168 -66
-191 -66 -8 0 -45 20 -82 46 -123 83 -263 105 -393 59z"/>
</g>
</svg>
